<?xml version="1.0" encoding="utf-8"?>
<!-- Generator: Adobe Illustrator 16.0.0, SVG Export Plug-In . SVG Version: 6.00 Build 0)  -->
<!DOCTYPE svg PUBLIC "-//W3C//DTD SVG 1.1//EN" "http://www.w3.org/Graphics/SVG/1.1/DTD/svg11.dtd">
<svg version="1.1" id="Layer_1" xmlns="http://www.w3.org/2000/svg" xmlns:xlink="http://www.w3.org/1999/xlink" x="0px" y="0px"
	 width="600px" height="250px" viewBox="0 0 600 250" enable-background="new 0 0 600 250" xml:space="preserve">
<title  id="instagram-icon">Instagram icon</title>
<path fill="#FFFFFF" d="M300,0c-33.958,0-38.198,0.156-51.531,0.75c-13.312,0.625-22.375,2.719-30.344,5.812
	c-8.219,3.188-15.198,7.469-22.146,14.417c-6.948,6.948-11.239,13.917-14.417,22.146c-3.094,7.969-5.198,17.031-5.812,30.344
	C175.125,86.802,175,91.042,175,125c0,33.959,0.156,38.197,0.75,51.531c0.625,13.303,2.719,22.375,5.812,30.344
	c3.188,8.209,7.469,15.197,14.417,22.146c6.948,6.938,13.917,11.238,22.146,14.416c7.979,3.084,17.042,5.197,30.344,5.812
	C261.802,249.875,266.042,250,300,250c33.959,0,38.197-0.156,51.531-0.75c13.303-0.625,22.375-2.729,30.344-5.812
	c8.209-3.188,15.197-7.479,22.146-14.416c6.938-6.949,11.238-13.906,14.416-22.146c3.083-7.969,5.198-17.041,5.812-30.344
	C424.875,163.197,425,158.959,425,125c0-33.958-0.156-38.198-0.75-51.531c-0.625-13.302-2.729-22.385-5.812-30.344
	c-3.188-8.219-7.479-15.198-14.416-22.146c-6.949-6.948-13.906-11.239-22.146-14.417c-7.969-3.094-17.041-5.198-30.344-5.812
	C338.197,0.125,333.959,0,300,0z M300,22.5c33.365,0,37.344,0.167,50.521,0.74c12.188,0.573,18.801,2.594,23.197,4.323
	c5.854,2.26,10,4.969,14.396,9.333c4.363,4.375,7.072,8.531,9.332,14.385c1.709,4.396,3.75,11.01,4.303,23.198
	c0.594,13.188,0.729,17.146,0.729,50.521s-0.156,37.344-0.77,50.521c-0.637,12.188-2.668,18.801-4.387,23.197
	c-2.332,5.854-4.988,10-9.363,14.396c-4.365,4.363-8.584,7.072-14.375,9.332c-4.375,1.709-11.094,3.75-23.281,4.303
	c-13.271,0.594-17.178,0.729-50.615,0.729c-33.448,0-37.354-0.156-50.615-0.77c-12.198-0.637-18.917-2.668-23.292-4.387
	c-5.927-2.332-10-4.988-14.365-9.363c-4.385-4.365-7.188-8.584-9.375-14.375c-1.719-4.375-3.739-11.094-4.375-23.281
	c-0.469-13.125-0.635-17.178-0.635-50.459c0-33.292,0.167-37.354,0.635-50.635c0.636-12.188,2.656-18.896,4.375-23.271
	c2.188-5.938,4.99-10,9.375-14.385c4.365-4.365,8.438-7.177,14.365-9.354c4.375-1.729,10.948-3.76,23.135-4.385
	c13.281-0.469,17.188-0.625,50.615-0.625L300,22.5z M300,60.812c-35.469,0-64.188,28.75-64.188,64.188
	c0,35.469,28.75,64.188,64.188,64.188c35.469,0,64.188-28.75,64.188-64.188C364.188,89.531,335.438,60.812,300,60.812z M300,166.666
	c-23.021,0-41.667-18.645-41.667-41.666c0-23.021,18.646-41.667,41.667-41.667c23.021,0,41.666,18.646,41.666,41.667
	C341.666,148.021,323.021,166.666,300,166.666z M381.729,58.281c0,8.281-6.729,15-15,15c-8.281,0-15-6.729-15-15
	s6.73-14.99,15-14.99C374.99,43.281,381.729,50.01,381.729,58.281z"/>
</svg>
