<?xml version="1.0" encoding="utf-8"?>
<!-- Generator: Adobe Illustrator 16.0.0, SVG Export Plug-In . SVG Version: 6.00 Build 0)  -->
<!DOCTYPE svg PUBLIC "-//W3C//DTD SVG 1.1//EN" "http://www.w3.org/Graphics/SVG/1.1/DTD/svg11.dtd">
<svg version="1.1" id="Layer_1" xmlns="http://www.w3.org/2000/svg" xmlns:xlink="http://www.w3.org/1999/xlink" x="0px" y="0px"
	 width="600px" height="250px" viewBox="0 0 600 250" enable-background="new 0 0 600 250" xml:space="preserve">
<title  id="twitter-icon">Twitter icon</title>
<path fill="#FFFFFF" d="M424.521,47.594c-9.218,4.052-19.062,6.812-29.427,8.073c10.562-6.364,18.688-16.396,22.531-28.364
	c-9.906,5.781-20.885,9.989-32.572,12.333c-9.334-9.989-22.637-16.239-37.406-16.239c-28.303,0-51.25,22.948-51.25,51.219
	c0,4.062,0.469,7.969,1.323,11.708c-42.604-2.01-80.365-22.469-105.635-53.396c-4.448,7.521-6.938,16.26-6.938,25.781
	c0,17.812,9.062,33.469,22.792,42.667c-8.406-0.271-16.312-2.583-23.208-6.417v0.635c0,24.844,17.636,45.562,41.104,50.281
	c-4.302,1.156-8.844,1.781-13.5,1.781c-3.271,0-6.406-0.312-9.542-0.896c6.573,20.344,25.469,35.178,47.958,35.594
	c-17.5,13.74-39.677,21.928-63.562,21.928c-4.062,0-8.115-0.24-12.188-0.697c22.802,14.52,49.667,23.01,78.719,23.01
	c94.312,0,145.822-78.084,145.822-145.688c0-2.177,0-4.375-0.156-6.562c10.012-7.177,18.75-16.25,25.626-26.542L424.521,47.594
	L424.521,47.594z"/>
</svg>
