<?xml version="1.0" encoding="utf-8"?>
<!-- Generator: Adobe Illustrator 16.0.0, SVG Export Plug-In . SVG Version: 6.00 Build 0)  -->
<!DOCTYPE svg PUBLIC "-//W3C//DTD SVG 1.1//EN" "http://www.w3.org/Graphics/SVG/1.1/DTD/svg11.dtd">
<svg version="1.1" id="Layer_1" xmlns="http://www.w3.org/2000/svg" xmlns:xlink="http://www.w3.org/1999/xlink" x="0px" y="0px"
	 width="600px" height="250px" viewBox="0 0 600 250" enable-background="new 0 0 600 250" xml:space="preserve">
<title  id="facebook-icon">Facebook icon</title>
<path fill="#FFFFFF" d="M411.209,0H188.792C181.177,0,175,6.177,175,13.792v222.417c0,7.625,6.177,13.791,13.792,13.791h119.73
	v-96.812h-32.594v-37.719h32.594V87.604c0-32.281,19.729-49.844,48.531-49.844c13.801,0,25.666,1.011,29.125,1.469v33.75h-20.012
	c-15.625,0-18.666,7.511-18.666,18.448V115.5h37.334l-4.844,37.812H347.5V250h63.697c7.637,0,13.803-6.166,13.803-13.791V13.792
	C425,6.177,418.834,0,411.209,0"/>
</svg>
