<?xml version="1.0" encoding="utf-8"?>
<!-- Generator: Adobe Illustrator 16.0.0, SVG Export Plug-In . SVG Version: 6.00 Build 0)  -->
<!DOCTYPE svg PUBLIC "-//W3C//DTD SVG 1.1//EN" "http://www.w3.org/Graphics/SVG/1.1/DTD/svg11.dtd">
<svg version="1.1" id="Layer_1" xmlns="http://www.w3.org/2000/svg" xmlns:xlink="http://www.w3.org/1999/xlink" x="0px" y="0px"
	 width="600px" height="250px" viewBox="0 0 600 250" enable-background="new 0 0 600 250" xml:space="preserve">
<title  id="linkedin-icon">LinkedIn icon</title>
<path fill="#FFFFFF" d="M387.99,213.041h-37.021v-58.01c0-13.834-0.281-31.635-19.291-31.635c-19.303,0-22.25,15.051-22.25,30.614
	v59.031h-37.021V93.75h35.562v16.26h0.479c4.969-9.375,17.053-19.271,35.105-19.271c37.51,0,44.447,24.688,44.447,56.823v65.479
	H387.99z M230.594,77.427c-11.917,0-21.49-9.646-21.49-21.511c0-11.854,9.583-21.489,21.49-21.489c11.875,0,21.5,9.635,21.5,21.489
	C252.094,67.781,242.458,77.427,230.594,77.427z M249.156,213.041h-37.125V93.75h37.125V213.041z M406.51,0H193.448
	C183.25,0,175,8.062,175,18.01v213.98c0,9.957,8.25,18.01,18.448,18.01h213.031c10.188,0,18.521-8.053,18.521-18.01V18.01
	C425,8.062,416.666,0,406.479,0H406.51z"/>
</svg>
